
        <svg xmlns="http://www.w3.org/2000/svg" xmlns:xlink="http://www.w3.org/1999/xlink" version="1.1" width="3147.783251231527" height="1256.1576354679805" viewBox="0 0 3147.783251231527 1256.1576354679805">
			
			<g transform="scale(7.389162561576355) translate(10, 10)">
				<defs id="SvgjsDefs1123"/><g id="SvgjsG1124" featureKey="symbolFeature-0" transform="matrix(1.2178828599842617,0,0,1.2178828599842617,-5.657248791915247,20)" fill="#fff"><g xmlns="http://www.w3.org/2000/svg"><path d="M51.1,39.7C51.1,39.7,51.1,39.7,51.1,39.7C51.1,39.7,51.1,39.7,51.1,39.7z"/><path d="M51.2,39.7C51.1,39.7,51.1,39.7,51.2,39.7C51.1,39.7,51.1,39.7,51.2,39.7z"/><path d="M85.7,51.4c-0.4-0.6-0.9-1.2-1.3-1.8c-3-4.1-3.5-8.5-1.9-13.4c2.4-7.3,0.5-19.8-3.7-26.2c-0.3-0.5-0.7-0.9-1-1.3   c1,2.2,2.1,4.3,2.8,6.6c0.8,2.3,1,4.8-0.6,7.1c0-12.1-7.1-18.2-17.5-21.6C69.3,3.3,74.7,7.4,77,14.9c1.2,4.2,0.6,10-1.5,13.4   c0-1.1,0-1.8,0-2.5c0.8-9.3-3.5-15.8-11.4-20.4C58.1,2,53.8,0.6,44.1,1.8c-7.5,0.9-14,3.9-19.2,9.4c-8.6,8.9-9.3,23.5-1.5,33.2   c0.3,0.4,0.7,0.8,1,1.2c0,0,0,0,0,0c2.3,2.2,5.9,4.7,5.9,4.7l0,0c0.1,0.1,0.2,0.2,0.3,0.2c14.6,7.7,28-2.8,30.6-7.8c0,0,0,0,0-0.1   c2.9-5.3,3.8-10.7,2.1-16.4c-2.1-7.1-6.9-11.5-13.2-13.3c1.8,1.3,4.4,2.8,6.4,4.8c6.6,6.8,5.7,17.4,4.3,21.1   c-0.2,0.5-0.4,0.9-0.5,1.3c0,0,0,0,0,0c-5.2,10.7-21.1,13.1-26.7,9.3c0,0-0.1,0-0.1,0c0,0-0.1,0-0.1,0l0,0c0,0-0.1,0-0.1-0.1   c-4.5-2.2-8.7-7.2-8.7-7.2l-0.1,0c-0.2-0.3-0.4-0.6-0.6-0.9c-6-8.8-4.2-21.9,3.9-29.2c10.8-9.7,26.7-9.7,37.3,0   c5.3,4.9,7.6,11.2,7.1,18.3c-0.2,3.7-0.7,10.7-6.8,20.5c-0.8,1.2-1.7,2.7-2.7,4.1c-2.5,3.3-5,6.4-7.6,9.6c-5.1,6.2-4.9,13.4,0.8,19   c2.5,2.4,5.4,4.4,8.1,6.6c0.2-0.2,0.3-0.3,0.5-0.5c-0.7-0.9-1.5-1.9-2.2-2.8c-2.2-3-3.6-6.1-2.9-9.9c0.6-3,1.3-3.5,4.1-2.5   c2.4,0.8,4.8,1.6,7.2,2.2c1.2,0.3,2.6,0.2,3.9,0c3-0.6,4.4-3,4-6c-0.1-0.9,0.1-2.1,0.6-2.9c0.7-1.1,1-2,0.6-3.4   c-0.2-0.5,0.3-1.6,0.8-1.9c1.1-0.6,1.5-1.3,1.3-2.5c-0.2-1.3,0.4-2.2,1.6-2.7c0.3-0.1,0.6-0.3,0.9-0.5   C87.1,55.1,87.4,53.8,85.7,51.4z"/><path d="M53.1,18.8c4.1,4.3,4.7,8,4,12.7c-0.9,5.9-4.5,8.3-4.5,8.3C45.1,46,33.4,43.2,31,35c-1.4-4.7-0.5-8.8,3.1-12.1   c3.4-3.2,7.4-4,11.8-2.2c4.6,1.9,7,7,5.8,11.6c-1.2,4.5-5.3,7.3-10.1,6.8c-3.9-0.4-7-4-7.1-8.1c0-3.8,2.9-7,6.8-7.4   c3.5-0.4,6.7,2.2,7.3,5.9c0.5,3.2-1.8,6.1-5,6.7c-2.8,0.5-5.6-1.4-6.2-4.2c-0.6-2.7,1-5.1,3.7-5.7c1.8-0.4,3.1,0.2,4.2,1.6   c0.8,1.1,0.3,2.3,0.2,2.4c-0.9,1.4-2.9,2.3-4.6,1.9C40.1,32,39.2,31,40.2,30c-0.8,0.3-1.4,1.5,0.2,2.2c1.9,0.9,4.2,0.2,5.5-1.2   c1.3-1.4,1.2-3.5-1-4.9c-2-1.2-3.7-1.2-5.7-0.1c-2.1,1.2-2.9,3.1-2.7,5.4c0.3,3.6,3.4,6,7,5.6c3.9-0.5,6.6-3.9,6.1-7.8   c-0.5-3.8-3.4-6.6-7.1-6.8c-4.2-0.2-7.9,2.4-8.9,6.4c-0.9,4,0.8,8.1,4.3,10.3c3.5,2.2,8.5,1.7,11.8-1.1c3.8-3.2,4.9-8.8,2.6-13.3   c-2.4-4.8-7.9-7.4-13.2-6.2c-5.4,1.2-9.4,5.4-10.2,10.9c-0.8,5.1,1.9,11.5,6.4,13.8c10.6,5.6,18.9-2.3,19.4-2.7c0,0,0,0,0,0   C59.8,35.3,60.2,23.4,53.1,18.8z"/></g><g xmlns="http://www.w3.org/2000/svg"><path d="M40.2,39C40.2,39,40.2,39,40.2,39C40.3,39,40.2,39,40.2,39z"/><path d="M40.2,39C40.2,39,40.3,39,40.2,39C40.3,39,40.2,39,40.2,39z"/><path d="M5.7,50.7c0.4-0.6,0.9-1.2,1.3-1.8c3-4.1,3.5-8.5,1.9-13.4c-2.4-7.3-0.5-19.8,3.7-26.2c0.3-0.5,0.7-0.9,1-1.3   c-1,2.2-2.1,4.3-2.8,6.6c-0.8,2.3-1,4.8,0.6,7.1C11.3,9.5,18.5,3.4,28.9,0c-6.8,2.6-12.3,6.8-14.5,14.2c-1.2,4.2-0.6,10,1.5,13.4   c0-1.1,0-1.8,0-2.5c-0.8-9.3,3.5-15.8,11.4-20.4c6.3-3.6,16.2-5.3,26.1-3.3c7.4,1.5,13.1,10.2,6.5,6.4c-6.7-3.9-23-6.4-33.6,3.4   c-5.3,4.9-7.6,11.2-7.1,18.3c0.2,3.7,0.7,10.7,6.8,20.5c0.8,1.2,1.7,2.7,2.7,4.1c2.5,3.3,5,6.4,7.6,9.6c5.1,6.2,4.9,13.4-0.8,19   c-2.5,2.4-5.4,4.4-8.1,6.6c-0.2-0.2-0.3-0.3-0.5-0.5c0.7-0.9,1.5-1.9,2.2-2.8c2.2-3,3.6-6.1,2.9-9.9c-0.6-3-1.3-3.5-4.1-2.5   c-2.4,0.8-4.8,1.6-7.2,2.2c-1.2,0.3-2.6,0.2-3.9,0c-3-0.6-4.4-3-4-6c0.1-0.9-0.1-2.1-0.6-2.9c-0.7-1.1-1-2-0.6-3.4   c0.2-0.5-0.3-1.6-0.8-1.9c-1.1-0.6-1.5-1.3-1.3-2.5c0.2-1.3-0.4-2.2-1.6-2.7c-0.3-0.1-0.6-0.3-0.9-0.5C4.3,54.4,4,53.1,5.7,50.7z"/></g></g><g id="SvgjsG1125" featureKey="textGroupContainer" transform="matrix(1,0,0,1,405,0)" fill="#fff"><rect xmlns="http://www.w3.org/2000/svg" y="0" height="1" width="1" opacity="0"/><rect xmlns="http://www.w3.org/2000/svg" y="0" x="-285" width="5" height="150"/></g><g id="SvgjsG1126" featureKey="nameFeature-0" transform="matrix(1.7329405729577076,0,0,1.7329405729577076,137.6974870299171,14.615009995293224)" fill="#fff"><path d="M25.818 39.3764 c0.17801 0 0.31524 0.12961 0.31524 0.31602 c0 0.17801 -0.13801 0.30762 -0.31602 0.30762 l-9.0068 0 c-0.17801 0 -0.31602 -0.12961 -0.31602 -0.30762 c0 -0.18641 0.13801 -0.31602 0.31602 -0.31602 l1.44 0 c0.804 0 1.2548 -0.606 0.95996 -1.4 l-2.478 -6.498 l-10.209 0 l-2.5116 6.498 c-0.28 0.7232 0.16078 1.4 0.96 1.4 l1.44 0 c0.17801 0 0.31602 0.12961 0.31602 0.31602 c0 0.17801 -0.13801 0.30762 -0.31602 0.30762 l-5.9212 0 c-0.17801 0 -0.31602 -0.12961 -0.31602 -0.30762 c0 -0.18641 0.13801 -0.31602 0.31602 -0.31602 l0.96 0 c1.04 0 1.5116 -0.52 1.84 -1.4 l9.5228 -24.482 l0.75602 0 l9.4084 24.522 c0.2884 0.72 0.84 1.36 1.96 1.36 l0.88 0 z M6.7736 30.8632 l9.7316 0 l-4.8296 -12.664 z M65.584 13.64 c0.18641 0 0.3152 0.12922 0.3152 0.31562 c0 0.17801 -0.12961 0.30762 -0.31602 0.30762 l-1.1268 0 c-0.76 0 -1.2732 0.25641 -1.4744 0.95564 l-7.556 24.822 l-0.75602 0 l-6.9588 -20.6 l-5.9072 20.6 l-0.75602 0 l-8.5668 -24.822 c-0.2732 -0.7312 -0.8028 -0.956 -1.3616 -0.956 l-1.1212 0 c-0.18641 0 -0.31602 -0.12961 -0.31602 -0.31562 c0 -0.17801 0.12961 -0.30762 0.31602 -0.30762 l8.7116 0 c0.18602 0 0.31562 0.12961 0.31562 0.31602 c0 0.17801 -0.12961 0.30762 -0.31562 0.30762 l-1.7724 0 c-0.6512 0 -0.9592 0.4064 -0.7776 0.956 l6.6084 19.41 l6.0112 -20.989 l0.68961 0 l6.9332 21.008 l5.8668 -19.429 c0.17922 -0.5412 -0.099572 -0.956 -0.6824 -0.956 l-1.844 0 c-0.18641 0 -0.31602 -0.12961 -0.31602 -0.31562 c0 -0.17801 0.12961 -0.30762 0.31602 -0.30762 l5.8412 0 z M95.074 39.3764 c0.17801 0 0.31524 0.12961 0.31524 0.31602 c0 0.17801 -0.13801 0.30762 -0.31602 0.30762 l-9.0068 0 c-0.17801 0 -0.31602 -0.12961 -0.31602 -0.30762 c0 -0.18641 0.13801 -0.31602 0.31602 -0.31602 l1.44 0 c0.804 0 1.2548 -0.606 0.95996 -1.4 l-2.478 -6.498 l-10.209 0 l-2.5116 6.498 c-0.28 0.7232 0.16078 1.4 0.96 1.4 l1.44 0 c0.17801 0 0.31602 0.12961 0.31602 0.31602 c0 0.17801 -0.13801 0.30762 -0.31602 0.30762 l-5.9212 0 c-0.17801 0 -0.31602 -0.12961 -0.31602 -0.30762 c0 -0.18641 0.13801 -0.31602 0.31602 -0.31602 l0.96 0 c1.04 0 1.5116 -0.52 1.84 -1.4 l9.5228 -24.482 l0.75602 0 l9.4084 24.522 c0.2884 0.72 0.84 1.36 1.96 1.36 l0.88 0 z M76.0296 30.8632 l9.7316 0 l-4.8296 -12.664 z M121.43599999999999 38.3256 c0.16961 0 0.27402 0.12121 0.27402 0.28242 c0 0.4764 -1.4376 1.6456 -3.2868 1.6456 c-7.8888 0 -0.2584 -12.982 -11.284 -12.982 l-1.4088 0 l0 11.178 c0 0.4872 0.37961 0.9272 0.96244 0.9272 l1.036 0 c0.18602 0 0.31562 0.12961 0.31562 0.30762 c0 0.18641 -0.12961 0.31602 -0.31562 0.31602 l-7.404 0 c-0.18602 0 -0.31562 -0.12961 -0.31562 -0.31602 c0 -0.17801 0.12961 -0.30762 0.31562 -0.30762 l1.036 0 c0.5812 0 0.96244 -0.4356 0.96244 -0.9236 l0 -23.263 c0 -0.4888 -0.37961 -0.9268 -0.96244 -0.9268 l-1.036 0 c-0.18602 0 -0.31562 -0.12961 -0.31562 -0.30762 c0 -0.18641 0.12961 -0.31602 0.31562 -0.31602 l8.7668 0 c5.302 0 8.884 2.084 8.884 6.324 c0 3.74 -2.9232 6.3052 -7.8424 6.944 c10.44 1.44 5.3708 12.35 9.3124 12.35 c1.2372 0 1.604 -0.9324 1.9904 -0.9324 z M105.72999999999999 26.64 l2.1476 0.00039062 c4.9436 0 6.538 -3.516 6.538 -6.6264 c0 -3.5616 -1.7188 -5.7504 -6.2276 -5.7504 l-1.4956 0 c-0.5812 0 -0.96244 0.438 -0.96244 0.9236 l0 11.453 z M144.13 32.7144 c0.17801 0 0.30801 0.13047 0.30801 0.31688 l0 6.9696 l-18.004 0 c-0.18602 0 -0.31562 -0.12961 -0.31562 -0.31602 c0 -0.17801 0.12961 -0.30762 0.31562 -0.30762 l1.036 0 c0.5812 0 0.96244 -0.438 0.96244 -0.9236 l0 -23.263 c0 -0.4872 -0.37961 -0.9272 -0.96244 -0.9272 l-1.036 0 c-0.18602 0 -0.31562 -0.12961 -0.31562 -0.30762 c0 -0.18641 0.12961 -0.31602 0.31562 -0.31602 l17.847 0 l0 6.9696 c0 0.18641 -0.12961 0.31602 -0.31562 0.31602 c-0.17801 0 -0.30762 -0.12961 -0.30762 -0.31602 l0 -1.6192 c0 -2.76 -1.64 -4.7268 -4.92 -4.7268 l-5.9356 0 c-0.5812 0 -0.96244 0.4356 -0.96244 0.9236 l0 10.745 l3.1756 0 c3.2608 0 3.622 -1.1352 3.622 -2.9916 l0 -0.36559 c0 -0.17801 0.13801 -0.31602 0.31602 -0.31602 s0.31602 0.13801 0.31602 0.31602 l0 7.3544 c0 0.17801 -0.13801 0.31602 -0.31602 0.31602 s-0.31602 -0.12961 -0.31602 -0.34082 l0 -0.39719 c0 -1.7836 -0.3448 -2.9352 -3.622 -2.9352 l-3.1756 0 l0 11.877 c0 0.4888 0.37961 0.9268 0.96244 0.9268 l6.0924 0 c3.28 0 4.92 -1.9668 4.92 -4.7268 l0 -1.6192 c0 -0.18641 0.12961 -0.31602 0.31562 -0.31602 z"/></g><g id="SvgjsG1127" featureKey="sloganFeature-0" transform="matrix(0.4583211927450978,0,0,0.4583211927450978,137.6061186421222,101.39066278723121)" fill="#fff"><path d="M8.0762 20.19531 c-4.1504 0 -7.2168 -2.8223 -7.2168 -7.2559 s3.0664 -7.2461 7.2168 -7.2461 c3.1445 0 5.6641 1.6113 6.6699 4.2871 l-2.7344 0.99609 c-0.625 -1.6406 -2.1191 -2.5879 -3.9355 -2.5879 c-2.4316 0 -4.2969 1.6992 -4.2969 4.5508 s1.8652 4.5605 4.2969 4.5605 c1.8164 0 3.3105 -0.95703 3.9355 -2.5977 l2.7344 0.99609 c-1.0059 2.6758 -3.5254 4.2969 -6.6699 4.2969 z M29.179921874999998 8.467 l-5.2344 0 l0 3.2031 l4.6387 0 l0 2.5488 l-4.6387 0 l0 3.1934 l5.2344 0 l0 2.5879 l-8.1836 0 l0 -14.111 l8.1836 0 l0 2.5781 z M45.68375 5.888999999999999 l2.9199 0 l0 14.111 l-3.3887 0 l-6.25 -10.088 l0 10.088 l-2.9199 0 l0 -14.111 l3.3496 0 l6.2891 10.029 l0 -10.029 z M64.28734375 5.888999999999999 l0 2.5781 l-3.3496 0 l0 11.533 l-2.9004 0 l0 -11.533 l-3.3691 0 l0 -2.5781 l9.6191 0 z M77.802690625 20 l-3.6719 -6.2109 l-0.84961 0 l0 6.2109 l-2.9297 0 l0 -14.111 l5.1172 0 c3.1934 0 4.541 1.8848 4.541 4.2188 c0 1.8945 -1.0742 3.125 -2.9883 3.5352 l4.248 6.3574 l-3.4668 0 z M73.281290625 8.32 l0 3.3691 l1.7285 0 c1.5625 0 2.1973 -0.66406 2.1973 -1.6797 c0 -1.0059 -0.63477 -1.6895 -2.1973 -1.6895 l-1.7285 0 z M92.490253125 20.19531 c-3.0957 0 -5.5176 -1.582 -5.5176 -5.1367 l0 -9.1699 l2.9297 0 l0 8.7695 c0 2.1484 1.1426 2.9492 2.5879 2.9492 c1.4551 0 2.6074 -0.81055 2.6074 -2.9492 l0 -8.7695 l2.9297 0 l0 9.1699 c0 3.5547 -2.4316 5.1367 -5.5371 5.1367 z M114.277371875 20 l0 -14.111 l5.1074 0 c4.502 0 6.7285 2.832 6.7285 7.0508 c0 4.2285 -2.2266 7.0605 -6.7285 7.0605 l-5.1074 0 z M117.207071875 17.4121 l2.0313 0 c2.5977 0 3.7891 -1.6211 3.7891 -4.4727 s-1.1914 -4.4727 -3.7891 -4.4727 l-2.0313 0 l0 8.9453 z M140.88890625 8.467 l-5.2344 0 l0 3.2031 l4.6387 0 l0 2.5488 l-4.6387 0 l0 3.1934 l5.2344 0 l0 2.5879 l-8.1836 0 l0 -14.111 l8.1836 0 l0 2.5781 z M162.666003125 5.888999999999999 c2.7637 0 4.4824 2.0508 4.4824 4.5605 c0 2.5684 -1.7188 4.4922 -4.4824 4.4922 l-2.9395 0 l0 5.0586 l-2.9297 0 l0 -14.111 l5.8691 0 z M162.177703125 12.4902 c1.4648 0 2.1484 -0.81055 2.1484 -2.0801 c0 -1.2207 -0.68359 -2.0703 -2.1484 -2.0703 l-2.4512 0 l0 4.1504 l2.4512 0 z M178.144559375 20.19531 c-3.0273 0 -5.3906 -1.4551 -5.8203 -4.1016 l3.0273 -0.69336 c0.19531 1.582 1.3574 2.4023 2.9102 2.4023 c1.1914 0 2.1387 -0.52734 2.1289 -1.7188 c-0.0097656 -1.3281 -1.5723 -1.748 -3.291 -2.2754 c-2.0703 -0.64453 -4.2871 -1.4063 -4.2871 -4.0039 c0 -2.627 2.1484 -4.1113 4.9805 -4.1113 c2.4805 0 4.9805 1.0059 5.5469 3.7109 l-2.832 0.70313 c-0.26367 -1.4063 -1.2109 -2.0215 -2.5391 -2.0215 c-1.1816 0 -2.1875 0.48828 -2.1875 1.6504 c0 1.084 1.3867 1.4453 2.9883 1.9238 c2.1289 0.64453 4.6484 1.4648 4.6484 4.2773 c0 2.998 -2.5098 4.2578 -5.2734 4.2578 z M189.97073125 20 l0 -14.111 l2.9297 0 l0 14.111 l-2.9297 0 z M209.287453125 5.888999999999999 l2.9297 0 l0 14.111 l-2.9297 0 l0 -5.8008 l-5.9668 0 l0 5.8008 l-2.9297 0 l0 -14.111 l2.9297 0 l0 5.7617 l5.9668 0 l0 -5.7617 z M225.966825 20.19531 c-4.1504 0 -7.2168 -2.832 -7.2168 -7.2559 c0 -4.4336 3.0664 -7.2461 7.2168 -7.2461 c4.1406 0 7.207 2.8125 7.207 7.2461 c0 4.4238 -3.0664 7.2559 -7.207 7.2559 z M225.966825 17.5098 c2.4316 0 4.2969 -1.709 4.2969 -4.5703 c0 -2.8516 -1.8652 -4.5508 -4.2969 -4.5508 s-4.2969 1.6992 -4.2969 4.5508 c0 2.8613 1.8652 4.5703 4.2969 4.5703 z M242.646525 17.4121 l4.4238 0 l0 2.5879 l-7.3535 0 l0 -14.111 l2.9297 0 l0 11.523 z M259.404325 20.19531 c-4.1504 0 -7.2168 -2.832 -7.2168 -7.2559 c0 -4.4336 3.0664 -7.2461 7.2168 -7.2461 c4.1406 0 7.207 2.8125 7.207 7.2461 c0 4.4238 -3.0664 7.2559 -7.207 7.2559 z M259.404325 17.5098 c2.4316 0 4.2969 -1.709 4.2969 -4.5703 c0 -2.8516 -1.8652 -4.5508 -4.2969 -4.5508 s-4.2969 1.6992 -4.2969 4.5508 c0 2.8613 1.8652 4.5703 4.2969 4.5703 z M279.257825 20.19531 c-4.0723 0 -7.0703 -2.8125 -7.0703 -7.2168 c0 -4.4629 3.0664 -7.2852 7.2168 -7.2852 c2.7246 0 4.9805 1.2012 6.2109 3.3203 l-2.5684 1.3672 c-0.74219 -1.4453 -2.0703 -2.1387 -3.6426 -2.1387 c-2.4414 0 -4.2773 1.6797 -4.2773 4.668 c0 2.8809 1.7188 4.7363 4.3848 4.7363 c1.8066 0 3.4668 -0.89844 3.8672 -2.959 l-3.8574 0 l0 -2.3535 l6.6309 0 l0 7.666 l-2.3047 0 l0 -1.9531 c-0.9082 1.3379 -2.4316 2.1484 -4.5898 2.1484 z M293.0371375 20 l0 -14.111 l2.9297 0 l0 14.111 l-2.9297 0 z M311.640859375 8.467 l-5.2344 0 l0 3.2031 l4.6387 0 l0 2.5488 l-4.6387 0 l0 3.1934 l5.2344 0 l0 2.5879 l-8.1836 0 l0 -14.111 l8.1836 0 l0 2.5781 z M332.23635625 20.19531 c-3.0273 0 -5.3906 -1.4551 -5.8203 -4.1016 l3.0273 -0.69336 c0.19531 1.582 1.3574 2.4023 2.9102 2.4023 c1.1914 0 2.1387 -0.52734 2.1289 -1.7188 c-0.0097656 -1.3281 -1.5723 -1.748 -3.291 -2.2754 c-2.0703 -0.64453 -4.2871 -1.4063 -4.2871 -4.0039 c0 -2.627 2.1484 -4.1113 4.9805 -4.1113 c2.4805 0 4.9805 1.0059 5.5469 3.7109 l-2.832 0.70313 c-0.26367 -1.4063 -1.2109 -2.0215 -2.5391 -2.0215 c-1.1816 0 -2.1875 0.48828 -2.1875 1.6504 c0 1.084 1.3867 1.4453 2.9883 1.9238 c2.1289 0.64453 4.6484 1.4648 4.6484 4.2773 c0 2.998 -2.5098 4.2578 -5.2734 4.2578 z M330.59565625 25.6055 l-1.377 -0.64453 l1.6406 -3.6426 l2.4512 0 z M344.062528125 20 l0 -14.111 l2.9297 0 l0 14.111 l-2.9297 0 z M369.39451875 5.888999999999999 c2.7637 0 4.4824 2.0508 4.4824 4.5605 c0 2.5684 -1.7188 4.4922 -4.4824 4.4922 l-2.9395 0 l0 5.0586 l-2.9297 0 l0 -14.111 l5.8691 0 z M368.90621875 12.4902 c1.4648 0 2.1484 -0.81055 2.1484 -2.0801 c0 -1.2207 -0.68359 -2.0703 -2.1484 -2.0703 l-2.4512 0 l0 4.1504 l2.4512 0 z M384.873075 20.19531 c-3.0273 0 -5.3906 -1.4551 -5.8203 -4.1016 l3.0273 -0.69336 c0.19531 1.582 1.3574 2.4023 2.9102 2.4023 c1.1914 0 2.1387 -0.52734 2.1289 -1.7188 c-0.0097656 -1.3281 -1.5723 -1.748 -3.291 -2.2754 c-2.0703 -0.64453 -4.2871 -1.4063 -4.2871 -4.0039 c0 -2.627 2.1484 -4.1113 4.9805 -4.1113 c2.4805 0 4.9805 1.0059 5.5469 3.7109 l-2.832 0.70313 c-0.26367 -1.4063 -1.2109 -2.0215 -2.5391 -2.0215 c-1.1816 0 -2.1875 0.48828 -2.1875 1.6504 c0 1.084 1.3867 1.4453 2.9883 1.9238 c2.1289 0.64453 4.6484 1.4648 4.6484 4.2773 c0 2.998 -2.5098 4.2578 -5.2734 4.2578 z M396.699246875 20 l0 -14.111 l2.9297 0 l0 14.111 l-2.9297 0 z M416.01596875 5.888999999999999 l2.9297 0 l0 14.111 l-2.9297 0 l0 -5.8008 l-5.9668 0 l0 5.8008 l-2.9297 0 l0 -14.111 l2.9297 0 l0 5.7617 l5.9668 0 l0 -5.7617 z M432.695340625 20.19531 c-4.1504 0 -7.2168 -2.832 -7.2168 -7.2559 c0 -4.4336 3.0664 -7.2461 7.2168 -7.2461 c4.1406 0 7.207 2.8125 7.207 7.2461 c0 4.4238 -3.0664 7.2559 -7.207 7.2559 z M432.695340625 17.5098 c2.4316 0 4.2969 -1.709 4.2969 -4.5703 c0 -2.8516 -1.8652 -4.5508 -4.2969 -4.5508 s-4.2969 1.6992 -4.2969 4.5508 c0 2.8613 1.8652 4.5703 4.2969 4.5703 z M454.629140625 5.888999999999999 l0 2.5781 l-3.3496 0 l0 11.533 l-2.9004 0 l0 -11.533 l-3.3691 0 l0 -2.5781 l9.6191 0 z M468.8771875 8.467 l-5.2344 0 l0 3.2031 l4.6387 0 l0 2.5488 l-4.6387 0 l0 3.1934 l5.2344 0 l0 2.5879 l-8.1836 0 l0 -14.111 l8.1836 0 l0 2.5781 z M483.193315625 20 l-3.6719 -6.2109 l-0.84961 0 l0 6.2109 l-2.9297 0 l0 -14.111 l5.1172 0 c3.1934 0 4.541 1.8848 4.541 4.2188 c0 1.8945 -1.0742 3.125 -2.9883 3.5352 l4.248 6.3574 l-3.4668 0 z M478.671915625 8.32 l0 3.3691 l1.7285 0 c1.5625 0 2.1973 -0.66406 2.1973 -1.6797 c0 -1.0059 -0.63477 -1.6895 -2.1973 -1.6895 l-1.7285 0 z M502.100078125 20 l-1.0254 -2.9102 l-5.9277 0 l-1.0254 2.9102 l-2.998 0 l5.1953 -14.111 l3.584 0 l5.1953 14.111 l-2.998 0 z M496.005878125 14.6387 l4.209 0 l-2.0996 -5.9863 z M516.93358125 5.888999999999999 c2.7637 0 4.4824 2.0508 4.4824 4.5605 c0 2.5684 -1.7188 4.4922 -4.4824 4.4922 l-2.9395 0 l0 5.0586 l-2.9297 0 l0 -14.111 l5.8691 0 z M516.44528125 12.4902 c1.4648 0 2.1484 -0.81055 2.1484 -2.0801 c0 -1.2207 -0.68359 -2.0703 -2.1484 -2.0703 l-2.4512 0 l0 4.1504 l2.4512 0 z M527.7246375 20 l0 -14.111 l2.9297 0 l0 14.111 l-2.9297 0 z M546.328359375 8.467 l-5.2344 0 l0 3.2031 l4.6387 0 l0 2.5488 l-4.6387 0 l0 3.1934 l5.2344 0 l0 2.5879 l-8.1836 0 l0 -14.111 l8.1836 0 l0 2.5781 z"/></g>
			</g>
		</svg>
	